<?xml version="1.0" encoding="UTF-8"?>
<svg xmlns="http://www.w3.org/2000/svg" xmlns:xlink="http://www.w3.org/1999/xlink" viewBox="0 0 50 50" width="50px" height="50px">
<g id="surface184300717">
<path style=" stroke:none;fill-rule:nonzero;fill:rgb(90.980393%,50.980395%,90.980393%);fill-opacity:1;" d="M 25 8 C 15.609375 8 8 15.609375 8 25 C 8 34.390625 15.609375 42 25 42 C 34.390625 42 42 34.390625 42 25 C 42 15.609375 34.390625 8 25 8 Z M 25 9 C 33.835938 9 41 16.164062 41 25 C 41 33.128906 34.9375 39.824219 27.089844 40.847656 L 27.089844 30.355469 L 30.828125 30.355469 L 31.386719 25.894531 L 27.085938 25.894531 L 27.085938 22.769531 C 27.085938 21.535156 27.925781 20.898438 28.8125 20.898438 C 29.699219 20.898438 31.539062 20.875 31.539062 20.875 L 31.539062 16.882812 C 31.539062 16.882812 29.902344 16.695312 28.230469 16.695312 C 26.828125 16.695312 25.28125 17.089844 24.042969 18.363281 C 22.785156 19.660156 22.601562 21.570312 22.601562 23.90625 L 22.601562 25.894531 L 18.851562 25.894531 L 18.851562 30.355469 L 22.601562 30.355469 L 22.601562 40.800781 C 14.90625 39.644531 9 33.019531 9 25 C 9 16.164062 16.164062 9 25 9 Z M 25 9 "/>
</g>
</svg>
