<?xml version="1.0" encoding="UTF-8"?>
<svg xmlns="http://www.w3.org/2000/svg" xmlns:xlink="http://www.w3.org/1999/xlink" viewBox="0 0 100 100" width="100px" height="100px">
<g id="surface183499029">
<path style=" stroke:none;fill-rule:nonzero;fill:rgb(100%,100%,100%);fill-opacity:1;" d="M 31 17 C 23.28125 17 17 23.28125 17 31 L 17 69 C 17 76.71875 23.28125 83 31 83 L 69 83 C 76.71875 83 83 76.71875 83 69 L 83 31 C 83 23.28125 76.71875 17 69 17 Z M 31 19 L 69 19 C 75.640625 19 81 24.359375 81 31 L 81 69 C 81 75.640625 75.640625 81 69 81 L 31 81 C 24.359375 81 19 75.640625 19 69 L 19 31 C 19 24.359375 24.359375 19 31 19 Z M 40 26 C 32.285156 26 26 32.285156 26 40 L 26 60 C 26 67.714844 32.285156 74 40 74 L 60 74 C 67.714844 74 74 67.714844 74 60 L 74 40 C 74 32.285156 67.714844 26 60 26 Z M 40 27 L 60 27 C 67.171875 27 73 32.828125 73 40 L 73 60 C 73 67.171875 67.171875 73 60 73 L 40 73 C 32.828125 73 27 67.171875 27 60 L 27 40 C 27 32.828125 32.828125 27 40 27 Z M 40 30 C 34.492188 30 30 34.492188 30 40 L 30 60 C 30 65.507812 34.492188 70 40 70 L 60 70 C 65.507812 70 70 65.507812 70 60 L 70 40 C 70 34.492188 65.507812 30 60 30 Z M 40 31 L 60 31 C 64.964844 31 69 35.035156 69 40 L 69 60 C 69 64.964844 64.964844 69 60 69 L 40 69 C 35.035156 69 31 64.964844 31 60 L 31 40 C 31 35.035156 35.035156 31 40 31 Z M 62.5 34 C 61.375 34 60.46875 34.441406 59.878906 35.105469 C 59.285156 35.769531 59 36.640625 59 37.5 C 59 38.359375 59.285156 39.230469 59.878906 39.894531 C 60.46875 40.558594 61.375 41 62.5 41 C 63.625 41 64.53125 40.558594 65.121094 39.894531 C 65.714844 39.230469 66 38.359375 66 37.5 C 66 36.640625 65.714844 35.769531 65.121094 35.105469 C 64.53125 34.441406 63.625 34 62.5 34 Z M 62.5 35 C 63.375 35 63.96875 35.308594 64.378906 35.769531 C 64.785156 36.230469 65 36.859375 65 37.5 C 65 38.140625 64.785156 38.769531 64.378906 39.230469 C 63.96875 39.691406 63.375 40 62.5 40 C 61.625 40 61.03125 39.691406 60.621094 39.230469 C 60.214844 38.769531 60 38.140625 60 37.5 C 60 36.859375 60.214844 36.230469 60.621094 35.769531 C 61.03125 35.308594 61.625 35 62.5 35 Z M 50 38 C 43.378906 38 38 43.378906 38 50 C 38 56.621094 43.378906 62 50 62 C 56.621094 62 62 56.621094 62 50 C 62 43.378906 56.621094 38 50 38 Z M 50 39 C 56.082031 39 61 43.917969 61 50 C 61 56.082031 56.082031 61 50 61 C 43.917969 61 39 56.082031 39 50 C 39 43.917969 43.917969 39 50 39 Z M 50 42 C 45.585938 42 42 45.585938 42 50 C 42 54.414062 45.585938 58 50 58 C 54.414062 58 58 54.414062 58 50 C 58 45.585938 54.414062 42 50 42 Z M 50 43 C 53.871094 43 57 46.128906 57 50 C 57 53.871094 53.871094 57 50 57 C 46.128906 57 43 53.871094 43 50 C 43 46.128906 46.128906 43 50 43 Z M 50 43 "/>
</g>
</svg>
