<?xml version="1.0" encoding="UTF-8"?>
<svg xmlns="http://www.w3.org/2000/svg" xmlns:xlink="http://www.w3.org/1999/xlink" viewBox="0 0 50 50" width="50px" height="50px">
<g id="surface183791150">
<path style=" stroke:none;fill-rule:nonzero;fill:rgb(100%,100%,100%);fill-opacity:1;" d="M 25 8 C 15.609375 8 8 15.609375 8 25 C 8 34.390625 15.609375 42 25 42 C 34.390625 42 42 34.390625 42 25 C 42 15.609375 34.390625 8 25 8 Z M 25 9 C 33.835938 9 41 16.164062 41 25 C 41 33.835938 33.835938 41 25 41 C 16.164062 41 9 33.835938 9 25 C 9 16.164062 16.164062 9 25 9 Z M 29.796875 17.40625 C 27.363281 17.40625 25.386719 19.402344 25.386719 21.867188 C 25.386719 22.214844 25.503906 22.882812 25.503906 22.882812 C 25.503906 22.882812 20.183594 22.914062 16.417969 18.222656 C 16.417969 18.222656 15.835938 19.007812 15.820312 20.46875 C 15.792969 22.941406 17.78125 24.179688 17.78125 24.179688 C 17.78125 24.179688 16.78125 24.203125 15.785156 23.621094 C 15.871094 27.449219 19.320312 28.050781 19.320312 28.050781 C 19.320312 28.050781 18.207031 28.265625 17.328125 28.128906 C 17.890625 29.898438 19.519531 31.191406 21.449219 31.226562 C 19.9375 32.421875 18.039062 33.136719 15.972656 33.136719 C 15.617188 33.136719 15.265625 33.113281 14.921875 33.070312 C 15.941406 34.191406 19.1875 35.074219 21.679688 35.074219 C 29.785156 35.074219 34.21875 28.277344 34.21875 22.386719 C 34.21875 22.191406 34.214844 21.996094 34.207031 21.808594 C 35.070312 21.175781 35.816406 20.394531 36.410156 19.5 C 35.207031 20.050781 33.878906 20.203125 33.878906 20.203125 C 33.878906 20.203125 35.429688 19.289062 35.816406 17.734375 C 34.964844 18.242188 34.019531 18.617188 33.015625 18.816406 C 32.210938 17.949219 31.066406 17.40625 29.796875 17.40625 Z M 29.796875 17.40625 "/>
</g>
</svg>
